<svg width="58" height="51" viewBox="0 0 58 51" fill="none" xmlns="http://www.w3.org/2000/svg">
<g clip-path="url(#clip0_5_92)">
<path d="M16 1.33341C16 2.13341 12.4 2.66674 8 2.66674H0V26.6667V50.6667H28.6667H57.3333V26.6667V2.66674H50.8C46.8 2.66674 43.8667 2.00008 43.4667 0.933411C42.8 -0.399921 42.5333 -0.399921 41.8667 0.933411C40.9333 3.06675 18.6667 3.33341 18.6667 1.33341C18.6667 0.533413 18.1333 8.01086e-05 17.3333 8.01086e-05C16.6667 8.01086e-05 16 0.533413 16 1.33341ZM16.5333 6.93341C17.2 8.26675 17.4667 8.26675 18.1333 6.93341C19.2 4.66674 40.8 4.66674 41.8667 6.93341C42.5333 8.26675 42.8 8.26675 43.4667 6.93341C43.8667 6.13341 46.5333 5.33341 49.4667 5.33341C54.4 5.33341 54.6667 5.60008 54.6667 9.33341V13.3334H28.6667H2.66667V9.33341C2.66667 5.46675 2.8 5.33341 9.2 5.33341C13.2 5.33341 16.1333 6.00008 16.5333 6.93341ZM54.6667 32.0001V48.0001H28.6667H2.66667V32.0001V16.0001H28.6667H54.6667V32.0001Z" fill="black"/>
<path d="M10.6666 27.3335C10.6666 28.4002 11.6 29.3335 12.6666 29.3335C13.7333 29.3335 14.6666 28.4002 14.6666 27.3335C14.6666 26.2668 13.7333 25.3335 12.6666 25.3335C11.6 25.3335 10.6666 26.2668 10.6666 27.3335Z" fill="black"/>
<path d="M18.6666 27.3335C18.6666 28.4002 19.6 29.3335 20.6666 29.3335C21.7333 29.3335 22.6666 28.4002 22.6666 27.3335C22.6666 26.2668 21.7333 25.3335 20.6666 25.3335C19.6 25.3335 18.6666 26.2668 18.6666 27.3335Z" fill="black"/>
<path d="M26.6666 27.3335C26.6666 28.4002 27.6 29.3335 28.6666 29.3335C29.7333 29.3335 30.6666 28.4002 30.6666 27.3335C30.6666 26.2668 29.7333 25.3335 28.6666 25.3335C27.6 25.3335 26.6666 26.2668 26.6666 27.3335Z" fill="black"/>
<path d="M34.6666 27.3335C34.6666 28.4002 35.6 29.3335 36.6666 29.3335C37.7333 29.3335 38.6666 28.4002 38.6666 27.3335C38.6666 26.2668 37.7333 25.3335 36.6666 25.3335C35.6 25.3335 34.6666 26.2668 34.6666 27.3335Z" fill="black"/>
<path d="M42.6666 27.3335C42.6666 28.4002 43.6 29.3335 44.6666 29.3335C45.7333 29.3335 46.6666 28.4002 46.6666 27.3335C46.6666 26.2668 45.7333 25.3335 44.6666 25.3335C43.6 25.3335 42.6666 26.2668 42.6666 27.3335Z" fill="black"/>
<path d="M10.6666 36.6667C10.6666 37.7334 11.6 38.6667 12.6666 38.6667C13.7333 38.6667 14.6666 37.7334 14.6666 36.6667C14.6666 35.6001 13.7333 34.6667 12.6666 34.6667C11.6 34.6667 10.6666 35.6001 10.6666 36.6667Z" fill="black"/>
<path d="M18.6666 36.6667C18.6666 37.7334 19.6 38.6667 20.6666 38.6667C21.7333 38.6667 22.6666 37.7334 22.6666 36.6667C22.6666 35.6001 21.7333 34.6667 20.6666 34.6667C19.6 34.6667 18.6666 35.6001 18.6666 36.6667Z" fill="black"/>
<path d="M26.6666 36.6667C26.6666 37.7334 27.6 38.6667 28.6666 38.6667C29.7333 38.6667 30.6666 37.7334 30.6666 36.6667C30.6666 35.6001 29.7333 34.6667 28.6666 34.6667C27.6 34.6667 26.6666 35.6001 26.6666 36.6667Z" fill="black"/>
<path d="M34.6666 36.6667C34.6666 37.7334 35.6 38.6667 36.6666 38.6667C37.7333 38.6667 38.6666 37.7334 38.6666 36.6667C38.6666 35.6001 37.7333 34.6667 36.6666 34.6667C35.6 34.6667 34.6666 35.6001 34.6666 36.6667Z" fill="black"/>
<path d="M42.6666 36.6667C42.6666 37.7334 43.6 38.6667 44.6666 38.6667C45.7333 38.6667 46.6666 37.7334 46.6666 36.6667C46.6666 35.6001 45.7333 34.6667 44.6666 34.6667C43.6 34.6667 42.6666 35.6001 42.6666 36.6667Z" fill="black"/>
</g>
<defs>
<clipPath id="clip0_5_92">
<rect width="57.3333" height="50.6667" fill="white"/>
</clipPath>
</defs>
</svg>
