<svg width="58" height="60" viewBox="0 0 58 60" fill="none" xmlns="http://www.w3.org/2000/svg">
<g clip-path="url(#clip0_5_277)">
<path d="M35.5908 6.24499C32.6908 9.67356 30.3181 12.8572 30.3181 13.347C30.3181 13.8368 26.8908 16.5307 22.5408 19.347C15.4226 24.0001 14.7635 24.8572 13.8408 30.245C12.259 40.8981 11.8635 41.5103 7.11808 42.3674C2.10899 43.2246 -0.659196 45.6736 0.527167 48.3674C1.05444 49.8368 3.6908 50.2042 12.7863 50.2042C23.859 50.3266 24.2544 50.4491 20.8272 52.1634C16.7408 54.1225 15.9499 58.0409 19.2453 59.2654C22.6726 60.4899 54.5726 60.1225 56.6817 58.7756C59.1863 57.3062 59.3181 57.3062 37.9635 57.5511C25.5726 57.6736 19.7726 57.3062 19.7726 56.4491C19.7726 55.7144 20.2999 55.1021 20.959 55.1021C23.1999 55.1021 26.2317 51.4287 25.5726 49.5919C24.9135 48.1225 22.2772 47.7552 13.709 47.7552C7.64535 47.7552 2.63626 47.2654 2.63626 46.7756C2.63626 46.2858 9.22717 44.4491 17.3999 42.8572L32.0317 39.9185L37.3044 32.2042C40.0726 27.9185 42.9726 24.4899 43.6317 24.4899C45.4772 24.4899 56.6817 14.5715 56.6817 12.9797C56.6817 11.143 44.5544 9.40706e-05 42.4453 9.40706e-05C41.6544 9.40706e-05 38.4908 2.81642 35.5908 6.24499ZM49.1681 17.3878C46.5317 19.9593 43.4999 22.0409 42.709 22.0409C40.5999 22.0409 32.9544 16.0409 32.9544 14.4491C32.9544 13.7144 35.0635 10.6532 37.6999 7.71438L42.5772 2.20418L48.2453 7.46948L54.0453 12.7348L49.1681 17.3878ZM36.1181 20.694L39.6772 24.245L35.0635 30.9797C31.2408 36.4899 29.659 37.8368 25.7044 38.4491C23.0681 38.9389 19.9044 39.6736 18.7181 40.0409C17.2681 40.5307 17.9272 39.3062 20.2999 36.9797C22.5408 34.7756 25.0453 33.0613 26.0999 33.0613C27.0226 33.0613 27.6817 32.0817 27.4181 30.9797C26.8908 28.2858 22.409 27.3062 22.409 29.8776C22.409 30.8572 20.959 33.3062 19.1135 35.143L15.9499 38.5715V34.8981C16.2135 28.2858 17.6635 25.5919 23.7272 21.4287C27.0226 19.1021 30.3181 17.143 31.109 17.143C31.7681 17.143 34.1408 18.7348 36.1181 20.694Z" fill="black"/>
</g>
<defs>
<clipPath id="clip0_5_277">
<rect width="58" height="60" fill="white"/>
</clipPath>
</defs>
</svg>
