<svg width="59" height="60" viewBox="0 0 59 60" fill="none" xmlns="http://www.w3.org/2000/svg">
<g clip-path="url(#clip0_5_117)">
<path d="M12 19.2V38.5333L6.40001 38.9333L0.666678 39.3333L0.266678 47.2C-0.399989 60 -0.266657 60 29.3333 60C51.7333 60 54.5333 59.7333 56.4 57.6C58.4 55.4667 58.6667 51.3333 58.6667 27.6V-3.8147e-06H35.3333H12V19.2ZM56 28.4C56 46.6667 55.6 54.5333 54.4 55.7333C53.3333 56.8 46.6667 57.3333 33.3333 57.3333H14L13.4667 30L13.0667 2.66666H34.5333H56V28.4ZM10.6667 48.5333C10.6667 54 10.1333 55.8667 8.53335 56.5333C4.80001 58 2.66668 54.8 2.66668 47.8667C2.66668 41.4667 2.80001 41.3333 6.66668 41.3333C10.6667 41.3333 10.6667 41.4667 10.6667 48.5333Z" fill="black"/>
<path d="M20 13.3333C20 15.5999 23.2 17.1999 25.6 15.8666C29.2 13.9999 28.5333 12.3999 24 12.3999C21.8667 12.3999 20 12.7999 20 13.3333Z" fill="black"/>
<path d="M33.3334 13.3334C33.3334 14.1334 37.3334 14.6667 42.8 14.6667C48.6667 14.6667 51.8667 14.1334 51.3334 13.3334C50.9334 12.5334 46.6667 12.0001 41.8667 12.0001C37.0667 12.0001 33.3334 12.5334 33.3334 13.3334Z" fill="black"/>
<path d="M20 22.2666C20 23.0666 20.9333 24.3999 22 25.3333C23.6 26.6666 24.4 26.6666 26 25.3333C28.8 22.9333 28.5333 20.9333 25.6 22.5333C23.8667 23.4666 22.5333 23.3333 21.6 22.3999C20.5333 21.3333 20 21.3333 20 22.2666Z" fill="black"/>
<path d="M37.0667 23.6C40.1333 23.8667 44.9333 23.8667 47.7333 23.6C50.4 23.3334 47.8667 23.0667 42 23.0667C36.1333 23.0667 33.8667 23.3334 37.0667 23.6Z" fill="black"/>
<path d="M20 33.3333C20 33.8667 20.9333 35.0667 22 36C23.6 37.3333 24.4 37.3333 26 36C29.0667 33.4667 28.4 32.4 24 32.4C21.8667 32.4 20 32.9333 20 33.3333Z" fill="black"/>
<path d="M32.6667 33.3334C32.1334 34.1334 35.6 34.6667 42 34.6667C48.4 34.6667 51.8667 34.1334 51.3334 33.3334C50.9334 32.5334 46.6667 32.0001 42 32.0001C37.3334 32.0001 33.0667 32.5334 32.6667 33.3334Z" fill="black"/>
<path d="M20 42.3999C20 43.0666 20.9333 44.3999 22 45.3333C23.6 46.6666 24.4 46.6666 26 45.3333C27.0667 44.3999 28 43.0666 28 42.3999C28 41.5999 27.0667 41.7333 26 42.6666C24.4 43.9999 23.6 43.9999 22 42.6666C20.9333 41.7333 20 41.5999 20 42.3999Z" fill="black"/>
<path d="M32.6667 44C33.7334 45.7334 50.2667 45.7334 51.3334 44C51.8667 43.2 48.4 42.6667 42 42.6667C35.6 42.6667 32.1334 43.2 32.6667 44Z" fill="black"/>
</g>
<defs>
<clipPath id="clip0_5_117">
<rect width="58.6667" height="60" fill="white"/>
</clipPath>
</defs>
</svg>
