<svg width="59" height="66" viewBox="0 0 59 66" fill="none" xmlns="http://www.w3.org/2000/svg">
<path d="M35.9999 6.8C33.0666 10.5333 30.6666 14 30.6666 14.5333C30.6666 15.0667 27.1999 18 22.7999 21.0667C15.5999 26.1333 14.9332 27.0667 13.9999 32.9333C12.3999 44.5333 11.9999 45.2 7.1999 46.1333C2.13324 47.0667 -0.666765 49.7333 0.533235 52.6667C1.06657 54.2667 3.73324 54.6667 12.9332 54.6667C24.1332 54.8 24.5332 54.9333 21.0666 56.8C16.9332 58.9333 16.1332 63.2 19.4666 64.5333C22.9332 65.8667 55.1999 65.4667 57.3332 64C59.8666 62.4 59.9999 62.4 38.3999 62.6667C25.8666 62.8 19.9999 62.4 19.9999 61.4667C19.9999 60.6667 20.5332 60 21.1999 60C23.4666 60 26.5332 56 25.8666 54C25.1999 52.4 22.5332 52 13.8666 52C7.73324 52 2.66657 51.4667 2.66657 50.9333C2.66657 50.4 9.33323 48.4 17.5999 46.6667L32.3999 43.4667L37.7332 35.0667C40.5332 30.4 43.4666 26.6667 44.1332 26.6667C45.9999 26.6667 57.3332 15.8667 57.3332 14.1333C57.3332 12.1333 45.0666 0 42.9332 0C42.1332 0 38.9332 3.06666 35.9999 6.8ZM49.7332 18.9333C47.0666 21.7333 43.9999 24 43.1999 24C41.0666 24 33.3332 17.4667 33.3332 15.7333C33.3332 14.9333 35.4666 11.6 38.1332 8.4L43.0666 2.4L48.7999 8.13333L54.6666 13.8667L49.7332 18.9333ZM36.5332 22.5333L40.1332 26.4L35.4666 33.7333C31.5999 39.7333 29.9999 41.2 25.9999 41.8667C23.3332 42.4 20.1332 43.2 18.9332 43.6C17.4666 44.1333 18.1332 42.8 20.5332 40.2667C22.7999 37.8667 25.3332 36 26.3999 36C27.3332 36 27.9999 34.9333 27.7332 33.7333C27.1999 30.8 22.6666 29.7333 22.6666 32.5333C22.6666 33.6 21.1999 36.2667 19.3332 38.2667L16.1332 42V38C16.3999 30.8 17.8666 27.8667 23.9999 23.3333C27.3332 20.8 30.6666 18.6667 31.4666 18.6667C32.1332 18.6667 34.5332 20.4 36.5332 22.5333Z" fill="black"/>
</svg>
