<svg width="58" height="60" viewBox="0 0 58 60" fill="none" xmlns="http://www.w3.org/2000/svg">
<g clip-path="url(#clip0_5_247)">
<path d="M16.186 1.57895C16.186 2.52632 12.5442 3.1579 8.09302 3.1579H0V31.5789V60H29H58V31.5789V3.1579H51.3907C47.3442 3.1579 44.3767 2.36842 43.9721 1.10527C43.2977 -0.473682 43.0279 -0.473682 42.3535 1.10527C41.4093 3.63158 18.8837 3.94737 18.8837 1.57895C18.8837 0.631581 18.3442 2.38419e-06 17.5349 2.38419e-06C16.8605 2.38419e-06 16.186 0.631581 16.186 1.57895ZM16.7256 8.21053C17.4 9.78948 17.6698 9.78948 18.3442 8.21053C19.4233 5.52632 41.2744 5.52632 42.3535 8.21053C43.0279 9.78948 43.2977 9.78948 43.9721 8.21053C44.3767 7.26316 47.0744 6.31579 50.0419 6.31579C55.0326 6.31579 55.3023 6.63158 55.3023 11.0526V15.7895H29H2.69767V11.0526C2.69767 6.47369 2.83256 6.31579 9.30698 6.31579C13.3535 6.31579 16.3209 7.10527 16.7256 8.21053ZM55.3023 37.8947V56.8421H29H2.69767V37.8947V18.9474H29H55.3023V37.8947Z" fill="black"/>
<path d="M10.7906 32.3684C10.7906 33.6316 11.7348 34.7368 12.8139 34.7368C13.893 34.7368 14.8372 33.6316 14.8372 32.3684C14.8372 31.1052 13.893 30 12.8139 30C11.7348 30 10.7906 31.1052 10.7906 32.3684Z" fill="black"/>
<path d="M18.8837 32.3684C18.8837 33.6316 19.8279 34.7368 20.9069 34.7368C21.986 34.7368 22.9302 33.6316 22.9302 32.3684C22.9302 31.1052 21.986 30 20.9069 30C19.8279 30 18.8837 31.1052 18.8837 32.3684Z" fill="black"/>
<path d="M26.9768 32.3684C26.9768 33.6316 27.921 34.7368 29.0001 34.7368C30.0791 34.7368 31.0233 33.6316 31.0233 32.3684C31.0233 31.1052 30.0791 30 29.0001 30C27.921 30 26.9768 31.1052 26.9768 32.3684Z" fill="black"/>
<path d="M35.0698 32.3684C35.0698 33.6316 36.014 34.7368 37.0931 34.7368C38.1721 34.7368 39.1163 33.6316 39.1163 32.3684C39.1163 31.1052 38.1721 30 37.0931 30C36.014 30 35.0698 31.1052 35.0698 32.3684Z" fill="black"/>
<path d="M43.1628 32.3684C43.1628 33.6316 44.107 34.7368 45.1861 34.7368C46.2652 34.7368 47.2094 33.6316 47.2094 32.3684C47.2094 31.1052 46.2652 30 45.1861 30C44.107 30 43.1628 31.1052 43.1628 32.3684Z" fill="black"/>
<path d="M10.7906 43.4211C10.7906 44.6843 11.7348 45.7896 12.8139 45.7896C13.893 45.7896 14.8372 44.6843 14.8372 43.4211C14.8372 42.158 13.893 41.0527 12.8139 41.0527C11.7348 41.0527 10.7906 42.158 10.7906 43.4211Z" fill="black"/>
<path d="M18.8837 43.4211C18.8837 44.6843 19.8279 45.7896 20.9069 45.7896C21.986 45.7896 22.9302 44.6843 22.9302 43.4211C22.9302 42.158 21.986 41.0527 20.9069 41.0527C19.8279 41.0527 18.8837 42.158 18.8837 43.4211Z" fill="black"/>
<path d="M26.9768 43.4211C26.9768 44.6843 27.921 45.7896 29.0001 45.7896C30.0791 45.7896 31.0233 44.6843 31.0233 43.4211C31.0233 42.158 30.0791 41.0527 29.0001 41.0527C27.921 41.0527 26.9768 42.158 26.9768 43.4211Z" fill="black"/>
<path d="M35.0698 43.4211C35.0698 44.6843 36.014 45.7896 37.0931 45.7896C38.1721 45.7896 39.1163 44.6843 39.1163 43.4211C39.1163 42.158 38.1721 41.0527 37.0931 41.0527C36.014 41.0527 35.0698 42.158 35.0698 43.4211Z" fill="black"/>
<path d="M43.1628 43.4211C43.1628 44.6843 44.107 45.7896 45.1861 45.7896C46.2652 45.7896 47.2094 44.6843 47.2094 43.4211C47.2094 42.158 46.2652 41.0527 45.1861 41.0527C44.107 41.0527 43.1628 42.158 43.1628 43.4211Z" fill="black"/>
</g>
<defs>
<clipPath id="clip0_5_247">
<rect width="58" height="60" fill="white"/>
</clipPath>
</defs>
</svg>
