<svg width="58" height="60" viewBox="0 0 58 60" fill="none" xmlns="http://www.w3.org/2000/svg">
<g clip-path="url(#clip0_5_266)">
<path d="M11.8637 19.2V38.5333L6.32731 38.9333L0.659132 39.3333L0.263678 47.2C-0.395413 60 -0.263596 60 29 60C51.1455 60 53.9137 59.7333 55.7591 57.6C57.7364 55.4667 58 51.3333 58 27.6V-3.12924e-06H34.9319H11.8637V19.2ZM55.3637 28.4C55.3637 46.6667 54.9682 54.5333 53.7819 55.7333C52.7273 56.8 46.1364 57.3333 32.9546 57.3333H13.8409L13.3137 30L12.9182 2.66666H34.1409H55.3637V28.4ZM10.5455 48.5333C10.5455 54 10.0182 55.8667 8.4364 56.5333C4.7455 58 2.6364 54.8 2.6364 47.8667C2.6364 41.4667 2.76822 41.3333 6.59095 41.3333C10.5455 41.3333 10.5455 41.4667 10.5455 48.5333Z" fill="black"/>
<path d="M19.7728 13.3333C19.7728 15.5999 22.9365 17.1999 25.3092 15.8666C28.8683 13.9999 28.2092 12.3999 23.7274 12.3999C21.6183 12.3999 19.7728 12.7999 19.7728 13.3333Z" fill="black"/>
<path d="M32.9546 13.3332C32.9546 14.1332 36.9091 14.6665 42.3137 14.6665C48.1137 14.6665 51.2773 14.1332 50.75 13.3332C50.3546 12.5332 46.1364 11.9998 41.391 11.9998C36.6455 11.9998 32.9546 12.5332 32.9546 13.3332Z" fill="black"/>
<path d="M19.7728 22.2668C19.7728 23.0668 20.6956 24.4002 21.7501 25.3335C23.3319 26.6668 24.1228 26.6668 25.7046 25.3335C28.4728 22.9335 28.2092 20.9335 25.3092 22.5335C23.5956 23.4668 22.2774 23.3335 21.3546 22.4002C20.3001 21.3335 19.7728 21.3335 19.7728 22.2668Z" fill="black"/>
<path d="M36.6455 23.5998C39.6773 23.8665 44.4227 23.8665 47.1909 23.5998C49.8273 23.3331 47.3227 23.0665 41.5227 23.0665C35.7227 23.0665 33.4818 23.3331 36.6455 23.5998Z" fill="black"/>
<path d="M19.7728 33.3333C19.7728 33.8667 20.6956 35.0667 21.7501 36C23.3319 37.3333 24.1228 37.3333 25.7046 36C28.7365 33.4667 28.0774 32.4 23.7274 32.4C21.6183 32.4 19.7728 32.9333 19.7728 33.3333Z" fill="black"/>
<path d="M32.2955 33.3332C31.7682 34.1332 35.1955 34.6665 41.5227 34.6665C47.85 34.6665 51.2773 34.1332 50.75 33.3332C50.3546 32.5332 46.1364 31.9998 41.5227 31.9998C36.9091 31.9998 32.6909 32.5332 32.2955 33.3332Z" fill="black"/>
<path d="M19.7728 42.4002C19.7728 43.0668 20.6956 44.4002 21.7501 45.3335C23.3319 46.6668 24.1228 46.6668 25.7046 45.3335C26.7592 44.4002 27.6819 43.0668 27.6819 42.4002C27.6819 41.6002 26.7592 41.7335 25.7046 42.6668C24.1228 44.0002 23.3319 44.0002 21.7501 42.6668C20.6956 41.7335 19.7728 41.6002 19.7728 42.4002Z" fill="black"/>
<path d="M32.2955 43.9998C33.35 45.7331 49.6955 45.7331 50.75 43.9998C51.2773 43.1998 47.85 42.6665 41.5227 42.6665C35.1955 42.6665 31.7682 43.1998 32.2955 43.9998Z" fill="black"/>
</g>
<defs>
<clipPath id="clip0_5_266">
<rect width="58" height="60" fill="white"/>
</clipPath>
</defs>
</svg>
